<?xml version="1.0" encoding="utf-8"?>
<!-- Generator: Adobe Illustrator 27.8.1, SVG Export Plug-In . SVG Version: 6.00 Build 0)  -->
<svg version="1.1" id="Layer_1" xmlns="http://www.w3.org/2000/svg" xmlns:xlink="http://www.w3.org/1999/xlink" x="0px" y="0px"
	 viewBox="0 0 36 36" style="enable-background:new 0 0 36 36;" xml:space="preserve">
<style type="text/css">
	.st0{fill:url(#Background_00000023994326786898284820000004635064906505884344_);}
	.st1{fill:#0066FF;}
	.st2{fill:#F5F8FA;}
	.st3{fill:#CCD6DD;}
	.st4{fill:#292F33;}
	.st5{fill:#DD2E44;}
	.st6{fill:#8899A6;}
</style>
<linearGradient id="Background_00000034085849398168271480000017075939660649284774_" gradientUnits="userSpaceOnUse" x1="18" y1="298" x2="18" y2="262" gradientTransform="matrix(1 0 0 1 0 -262)">
	<stop  offset="5.586592e-03" style="stop-color:#244178"/>
	<stop  offset="1" style="stop-color:#0F1E34"/>
</linearGradient>
<rect id="Background" style="fill:url(#Background_00000034085849398168271480000017075939660649284774_);" width="36" height="36"/>
<g id="Logo">
	<circle class="st1" cx="18" cy="18" r="14"/>
	<circle class="st2" cx="18" cy="18" r="10.2"/>
	<path class="st3" d="M18,10.2l1.2,4.9l4.3-2.7l-2.7,4.3l5,1.3l-4.9,1.2l2.7,4.3l-4.3-2.7l-1.3,5l-1.2-4.9l-4.3,2.7l2.7-4.3l-5-1.3
		l4.9-1.2l-2.7-4.3l4.3,2.7L18,10.2z"/>
	<path class="st4" d="M17.4,20.1l6.9,4.2l-4.2-6.9L17.4,20.1z"/>
	<path class="st5" d="M18.6,15.9l-6.9-4.2l4.2,6.9L18.6,15.9z"/>
	<circle class="st6" cx="18" cy="18" r="2.5"/>
	<circle class="st2" cx="18" cy="18" r="1.3"/>
</g>
</svg>
