<?xml version="1.0" encoding="utf-8"?>
<!-- Generator: Adobe Illustrator 27.8.1, SVG Export Plug-In . SVG Version: 6.00 Build 0)  -->
<svg version="1.1" id="Layer_1" xmlns="http://www.w3.org/2000/svg" xmlns:xlink="http://www.w3.org/1999/xlink" x="0px" y="0px"
	 viewBox="0 0 36 36" style="enable-background:new 0 0 36 36;" xml:space="preserve">
<style type="text/css">
	.st0{clip-path:url(#SVGID_00000090271091082730422770000003667388687084550312_);}
	.st1{fill:#F5F8FA;}
	.st2{fill:#CCD6DD;}
	.st3{fill:#292F33;}
	.st4{fill:#DD2E44;}
	.st5{fill:#8899A6;}
</style>
<g>
	<g>
		<defs>
			<rect id="SVGID_1_" width="36" height="36"/>
		</defs>
		<clipPath id="SVGID_00000178166440530023239490000008753518510542322599_">
			<use xlink:href="#SVGID_1_"  style="overflow:visible;"/>
		</clipPath>
		<g style="clip-path:url(#SVGID_00000178166440530023239490000008753518510542322599_);">
			<g>
				<defs>
					<rect id="SVGID_00000091716846589393849150000002543174668411706246_" x="-5" y="-5" width="46" height="46"/>
				</defs>
				<clipPath id="SVGID_00000157273820769408615040000003689656297332261521_">
					<use xlink:href="#SVGID_00000091716846589393849150000002543174668411706246_"  style="overflow:visible;"/>
				</clipPath>
				<g style="clip-path:url(#SVGID_00000157273820769408615040000003689656297332261521_);">
					
						<image style="overflow:visible;" width="97" height="97" xlink:href="B068D31.jpg"  transform="matrix(0.48 0 0 0.48 -5.28 -5.28)">
					</image>
				</g>
			</g>
		</g>
	</g>
</g>
<circle class="st1" cx="18" cy="18" r="13"/>
<path class="st2" d="M18,8l1.5,6.3l5.5-3.4l-3.4,5.5L28,18l-6.3,1.5l3.4,5.5l-5.5-3.4L18,28l-1.5-6.3L11,25.1l3.4-5.5L8,18l6.3-1.5
	L10.9,11l5.5,3.4L18,8z"/>
<path class="st3" d="M17.3,20.7l8.8,5.4l-5.4-8.8L17.3,20.7z"/>
<path class="st4" d="M18.7,15.3L9.9,9.9l5.4,8.8L18.7,15.3z"/>
<circle class="st5" cx="18" cy="18" r="3.1"/>
<circle class="st1" cx="18" cy="18" r="1.6"/>
</svg>
