<?xml version="1.0" encoding="utf-8"?>
<!-- Generator: Adobe Illustrator 27.7.0, SVG Export Plug-In . SVG Version: 6.00 Build 0)  -->
<svg version="1.1" id="Layer_1" xmlns="http://www.w3.org/2000/svg" xmlns:xlink="http://www.w3.org/1999/xlink" x="0px"
	y="0px" viewBox="0 0 36 36" style="enable-background:new 0 0 36 36;" xml:space="preserve">
	<style type="text/css">
		.st0 {
			fill: #FFFFFF;
			filter: url(#Adobe_OpacityMaskFilter);
		}

		.st1 {
			fill: url(#SVGID_1_);
		}

		.st2 {
			mask: url(#compass-mask_00000060720661764517334690000004052093843397373834_);
		}

		.st3 {
			fill: #0066FF;
		}

		.st4 {
			fill: #6198FF;
		}

		.st5 {
			fill: #F5F8FA;
		}

		.st6 {
			fill: #CCD6DD;
		}

		.st7 {
			fill: #292F33;
		}

		.st8 {
			fill: #DD2E44;
		}

		.st9 {
			fill: #8899A6;
		}

		.st10 {
			fill: #004CBB;
		}
	</style>
	<defs>
		<filter id="Adobe_OpacityMaskFilter" filterUnits="userSpaceOnUse" x="0" y="0.1" width="36" height="36">
			<feColorMatrix type="matrix" values="1 0 0 0 0  0 1 0 0 0  0 0 1 0 0  0 0 0 1 0" />
		</filter>
	</defs>
	<mask maskUnits="userSpaceOnUse" x="0" y="0.1" width="36" height="36"
		id="compass-mask_00000060720661764517334690000004052093843397373834_">
		<rect class="st0" width="36" height="36" />

		<linearGradient id="SVGID_1_" gradientUnits="userSpaceOnUse" x1="-126.3611" y1="164.8611" x2="-127.3611"
			y2="164.8611" gradientTransform="matrix(36 0 0 -36 4585 5953)">
			<stop offset="0" style="stop-color:#000000;stop-opacity:0.6" />
			<stop offset="1" style="stop-color:#000000;stop-opacity:0" />
		</linearGradient>
		<rect class="st1" width="36" height="36" />
	</mask>
	<g id="compass" class="st2">
		<circle class="st3" cx="18" cy="18.1" r="18" />
		<circle class="st4" cx="18" cy="18.1" r="14.5" />
		<circle class="st5" cx="18" cy="18.1" r="13" />
		<path class="st6" d="M18,8.1l1.5,6.3L25,11l-3.4,5.5l6.4,1.6l-6.3,1.5l3.4,5.5l-5.5-3.4L18,28.1l-1.5-6.3L11,25.2l3.4-5.5L8,18.1
		l6.3-1.5l-3.4-5.5l5.5,3.4L18,8.1z" />
		<path class="st7" d="M17.3,20.8l8.8,5.4l-5.4-8.8L17.3,20.8z" />
		<path class="st8" d="M18.7,15.4L9.9,10l5.4,8.8L18.7,15.4z" />
		<circle class="st9" cx="18" cy="18.1" r="3.1" />
		<circle class="st5" cx="18" cy="18.1" r="1.6" />
	</g>
	<g id="plus">
		<path class="st10" d="M28.7,26h-1.2c-0.6,0-1-0.4-1-1v-5.4h3.2V25C29.7,25.6,29.2,26,28.7,26z" />
		<rect x="26.5" y="16.4" class="st10" width="3.2" height="3.2" />
		<path class="st10" d="M35,19.6h-5.4v-3.2H35c0.6,0,1,0.4,1,1v1.2C36,19.2,35.7,19.6,35,19.6z" />
		<path class="st10"
			d="M26.9,19.6H21c-0.6,0-1.1-0.4-1.1-1v-1.2c0-0.6,0.4-1,1.1-1h5.8C26.8,16.4,26.8,19.6,26.9,19.6z" />
		<path class="st10" d="M29.7,16.4h-3.2V11c0-0.6,0.4-1,1-1h1.2c0.6,0,1,0.4,1,1V16.4z" />
		<rect x="26.5" y="14.9" class="st10" width="3.2" height="3.2" />
		<rect x="28.1" y="16.4" class="st10" width="3.2" height="3.2" />
		<rect x="24.9" y="16.4" class="st10" width="3.2" height="3.2" />
		<rect x="26.5" y="18.1" class="st10" width="3.2" height="3.2" />
	</g>
</svg>