<?xml version="1.0" encoding="utf-8"?>
<!-- Generator: Adobe Illustrator 27.8.1, SVG Export Plug-In . SVG Version: 6.00 Build 0)  -->
<svg version="1.1" id="Layer_1" xmlns="http://www.w3.org/2000/svg" xmlns:xlink="http://www.w3.org/1999/xlink" x="0px" y="0px"
	 viewBox="0 0 36 36" style="enable-background:new 0 0 36 36;" xml:space="preserve">
<style type="text/css">
	.st0{fill:#ffbf00;}
	.st1{fill:#F5F8FA;}
	.st2{fill:#CCD6DD;}
	.st3{fill:#292F33;}
	.st4{fill:#DD2E44;}
	.st5{fill:#8899A6;}
</style>
<rect class="st0" width="36" height="36"/>
<circle class="st1" cx="18" cy="18" r="13"/>
<path class="st2" d="M18,8l1.5,6.3l5.5-3.4l-3.4,5.5L28,18l-6.3,1.5l3.4,5.5l-5.5-3.4L18,28l-1.5-6.3L11,25.1l3.4-5.5L8,18l6.3-1.5
	L10.9,11l5.5,3.4L18,8z"/>
<path class="st3" d="M17.3,20.7l8.8,5.4l-5.4-8.8L17.3,20.7z"/>
<path class="st4" d="M18.7,15.3L9.9,9.9l5.4,8.8L18.7,15.3z"/>
<circle class="st5" cx="18" cy="18" r="3.1"/>
<circle class="st1" cx="18" cy="18" r="1.6"/>
</svg>
