<?xml version="1.0" encoding="utf-8"?>
<!-- Generator: Adobe Illustrator 27.8.1, SVG Export Plug-In . SVG Version: 6.00 Build 0)  -->
<svg version="1.1" id="Layer_1" xmlns="http://www.w3.org/2000/svg" xmlns:xlink="http://www.w3.org/1999/xlink" x="0px" y="0px"
	 viewBox="0 0 36 36" style="enable-background:new 0 0 36 36;" xml:space="preserve">
<style type="text/css">
	.st0{fill:url(#Background_00000020359872485254780710000009178085630286542736_);}
	.st1{fill:#FFFFFF;}
	.st2{fill:url(#SVGID_1_);}
	.st3{opacity:0.5;fill:#FFFFFF;enable-background:new    ;}
	.st4{fill:#8D99AF;enable-background:new    ;}
</style>
<linearGradient id="Background_00000006707305544594821360000001961825953277003658_" gradientUnits="userSpaceOnUse" x1="18" y1="560" x2="18" y2="524" gradientTransform="matrix(1 0 0 1 0 -524)">
	<stop  offset="5.586592e-03" style="stop-color:#244178"/>
	<stop  offset="1" style="stop-color:#0F1E34"/>
</linearGradient>
<rect id="Background" style="fill:url(#Background_00000006707305544594821360000001961825953277003658_);" width="36" height="36"/>
<circle class="st1" cx="18" cy="18" r="14"/>
<linearGradient id="SVGID_1_" gradientUnits="userSpaceOnUse" x1="18" y1="2.0886" x2="18" y2="37.896" gradientTransform="matrix(1 0 0 -1 0 38)">
	<stop  offset="0" style="stop-color:#244178"/>
	<stop  offset="1" style="stop-color:#0F1E34"/>
</linearGradient>
<circle class="st2" cx="18" cy="18" r="10.2"/>
<path class="st3" d="M18,10.2l1.2,4.9l4.3-2.7l-2.7,4.3l5,1.3l-4.9,1.2l2.7,4.3l-4.3-2.7l-1.3,5l-1.2-4.9l-4.3,2.7l2.7-4.3l-5-1.3
	l4.9-1.2l-2.7-4.3l4.3,2.7L18,10.2z"/>
<path class="st1" d="M17.4,20.1l6.9,4.2l-4.2-6.9L17.4,20.1z"/>
<path class="st1" d="M18.6,15.9l-6.9-4.2l4.2,6.9L18.6,15.9z"/>
<circle class="st1" cx="18" cy="18" r="2.5"/>
<circle class="st4" cx="18" cy="18" r="1.3"/>
</svg>
