<svg xmlns="http://www.w3.org/2000/svg" xmlns:xlink="http://www.w3.org/1999/xlink" id="visual" viewBox="0 0 960 540"
    width="960" height="540" version="1.1">
    <path
        d="M0 263L22.8 263.3C45.7 263.7 91.3 264.3 137 287.2C182.7 310 228.3 355 274 365.5C319.7 376 365.3 352 411.2 350.3C457 348.7 503 369.3 548.8 371.8C594.7 374.3 640.3 358.7 686 336.5C731.7 314.3 777.3 285.7 823 274.8C868.7 264 914.3 271 937.2 274.5L960 278L960 541L937.2 541C914.3 541 868.7 541 823 541C777.3 541 731.7 541 686 541C640.3 541 594.7 541 548.8 541C503 541 457 541 411.2 541C365.3 541 319.7 541 274 541C228.3 541 182.7 541 137 541C91.3 541 45.7 541 22.8 541L0 541Z"
        fill="#004cbb" />
    <path
        d="M0 432L22.8 427C45.7 422 91.3 412 137 403.5C182.7 395 228.3 388 274 391.7C319.7 395.3 365.3 409.7 411.2 402.2C457 394.7 503 365.3 548.8 349.2C594.7 333 640.3 330 686 327.8C731.7 325.7 777.3 324.3 823 337.8C868.7 351.3 914.3 379.7 937.2 393.8L960 408L960 541L937.2 541C914.3 541 868.7 541 823 541C777.3 541 731.7 541 686 541C640.3 541 594.7 541 548.8 541C503 541 457 541 411.2 541C365.3 541 319.7 541 274 541C228.3 541 182.7 541 137 541C91.3 541 45.7 541 22.8 541L0 541Z"
        fill="#0059dd" />
    <path
        d="M0 373L22.8 371.3C45.7 369.7 91.3 366.3 137 364.3C182.7 362.3 228.3 361.7 274 378.2C319.7 394.7 365.3 428.3 411.2 430.3C457 432.3 503 402.7 548.8 391.2C594.7 379.7 640.3 386.3 686 401.3C731.7 416.3 777.3 439.7 823 444C868.7 448.3 914.3 433.7 937.2 426.3L960 419L960 541L937.2 541C914.3 541 868.7 541 823 541C777.3 541 731.7 541 686 541C640.3 541 594.7 541 548.8 541C503 541 457 541 411.2 541C365.3 541 319.7 541 274 541C228.3 541 182.7 541 137 541C91.3 541 45.7 541 22.8 541L0 541Z"
        fill="#0066ff" />
    <path
        d="M0 406L22.8 419C45.7 432 91.3 458 137 466.3C182.7 474.7 228.3 465.3 274 454C319.7 442.7 365.3 429.3 411.2 434.8C457 440.3 503 464.7 548.8 471C594.7 477.3 640.3 465.7 686 459.7C731.7 453.7 777.3 453.3 823 455.3C868.7 457.3 914.3 461.7 937.2 463.8L960 466L960 541L937.2 541C914.3 541 868.7 541 823 541C777.3 541 731.7 541 686 541C640.3 541 594.7 541 548.8 541C503 541 457 541 411.2 541C365.3 541 319.7 541 274 541C228.3 541 182.7 541 137 541C91.3 541 45.7 541 22.8 541L0 541Z"
        fill="#3c80ff" />
    <path
        d="M0 494L22.8 493.5C45.7 493 91.3 492 137 490.8C182.7 489.7 228.3 488.3 274 485.8C319.7 483.3 365.3 479.7 411.2 473.3C457 467 503 458 548.8 462.3C594.7 466.7 640.3 484.3 686 490.7C731.7 497 777.3 492 823 485.8C868.7 479.7 914.3 472.3 937.2 468.7L960 465L960 541L937.2 541C914.3 541 868.7 541 823 541C777.3 541 731.7 541 686 541C640.3 541 594.7 541 548.8 541C503 541 457 541 411.2 541C365.3 541 319.7 541 274 541C228.3 541 182.7 541 137 541C91.3 541 45.7 541 22.8 541L0 541Z"
        fill="#6198ff" />
</svg>