<svg xmlns="http://www.w3.org/2000/svg" xmlns:xlink="http://www.w3.org/1999/xlink" id="visual" viewBox="0 0 960 540"
    width="960" height="540" version="1.1">
    <path
        d="M0 213L17.8 222.7C35.7 232.3 71.3 251.7 106.8 259C142.3 266.3 177.7 261.7 213.2 251.7C248.7 241.7 284.3 226.3 320 231C355.7 235.7 391.3 260.3 426.8 263.8C462.3 267.3 497.7 249.7 533.2 233.3C568.7 217 604.3 202 640 207.2C675.7 212.3 711.3 237.7 746.8 254C782.3 270.3 817.7 277.7 853.2 278.8C888.7 280 924.3 275 942.2 272.5L960 270L960 0L942.2 0C924.3 0 888.7 0 853.2 0C817.7 0 782.3 0 746.8 0C711.3 0 675.7 0 640 0C604.3 0 568.7 0 533.2 0C497.7 0 462.3 0 426.8 0C391.3 0 355.7 0 320 0C284.3 0 248.7 0 213.2 0C177.7 0 142.3 0 106.8 0C71.3 0 35.7 0 17.8 0L0 0Z"
        fill="#004cbb" />
    <path
        d="M0 220L17.8 213.5C35.7 207 71.3 194 106.8 184C142.3 174 177.7 167 213.2 173.5C248.7 180 284.3 200 320 210.2C355.7 220.3 391.3 220.7 426.8 211.7C462.3 202.7 497.7 184.3 533.2 185C568.7 185.7 604.3 205.3 640 203.2C675.7 201 711.3 177 746.8 169.2C782.3 161.3 817.7 169.7 853.2 176.3C888.7 183 924.3 188 942.2 190.5L960 193L960 0L942.2 0C924.3 0 888.7 0 853.2 0C817.7 0 782.3 0 746.8 0C711.3 0 675.7 0 640 0C604.3 0 568.7 0 533.2 0C497.7 0 462.3 0 426.8 0C391.3 0 355.7 0 320 0C284.3 0 248.7 0 213.2 0C177.7 0 142.3 0 106.8 0C71.3 0 35.7 0 17.8 0L0 0Z"
        fill="#0059dd" />
    <path
        d="M0 161L17.8 157.7C35.7 154.3 71.3 147.7 106.8 145.5C142.3 143.3 177.7 145.7 213.2 147.2C248.7 148.7 284.3 149.3 320 148.5C355.7 147.7 391.3 145.3 426.8 139C462.3 132.7 497.7 122.3 533.2 122.8C568.7 123.3 604.3 134.7 640 146.2C675.7 157.7 711.3 169.3 746.8 171.7C782.3 174 817.7 167 853.2 161C888.7 155 924.3 150 942.2 147.5L960 145L960 0L942.2 0C924.3 0 888.7 0 853.2 0C817.7 0 782.3 0 746.8 0C711.3 0 675.7 0 640 0C604.3 0 568.7 0 533.2 0C497.7 0 462.3 0 426.8 0C391.3 0 355.7 0 320 0C284.3 0 248.7 0 213.2 0C177.7 0 142.3 0 106.8 0C71.3 0 35.7 0 17.8 0L0 0Z"
        fill="#0066ff" />
    <path
        d="M0 104L17.8 104.5C35.7 105 71.3 106 106.8 107C142.3 108 177.7 109 213.2 101.8C248.7 94.7 284.3 79.3 320 73C355.7 66.7 391.3 69.3 426.8 78.3C462.3 87.3 497.7 102.7 533.2 104.8C568.7 107 604.3 96 640 92.7C675.7 89.3 711.3 93.7 746.8 98.8C782.3 104 817.7 110 853.2 116C888.7 122 924.3 128 942.2 131L960 134L960 0L942.2 0C924.3 0 888.7 0 853.2 0C817.7 0 782.3 0 746.8 0C711.3 0 675.7 0 640 0C604.3 0 568.7 0 533.2 0C497.7 0 462.3 0 426.8 0C391.3 0 355.7 0 320 0C284.3 0 248.7 0 213.2 0C177.7 0 142.3 0 106.8 0C71.3 0 35.7 0 17.8 0L0 0Z"
        fill="#3c80ff" />
    <path
        d="M0 82L17.8 74.8C35.7 67.7 71.3 53.3 106.8 48.2C142.3 43 177.7 47 213.2 52.8C248.7 58.7 284.3 66.3 320 61.8C355.7 57.3 391.3 40.7 426.8 35.3C462.3 30 497.7 36 533.2 45.8C568.7 55.7 604.3 69.3 640 73.7C675.7 78 711.3 73 746.8 68.5C782.3 64 817.7 60 853.2 53.8C888.7 47.7 924.3 39.3 942.2 35.2L960 31L960 0L942.2 0C924.3 0 888.7 0 853.2 0C817.7 0 782.3 0 746.8 0C711.3 0 675.7 0 640 0C604.3 0 568.7 0 533.2 0C497.7 0 462.3 0 426.8 0C391.3 0 355.7 0 320 0C284.3 0 248.7 0 213.2 0C177.7 0 142.3 0 106.8 0C71.3 0 35.7 0 17.8 0L0 0Z"
        fill="#6198ff" />
</svg>