<?xml version="1.0" encoding="utf-8"?>
<svg version="1.1" id="Layer_1" xmlns="http://www.w3.org/2000/svg" xmlns:xlink="http://www.w3.org/1999/xlink" x="0px"
	y="0px" viewBox="0 0 108 36" style="enable-background:new 0 0 108 36;" xml:space="preserve">
	<style type="text/css">
		.st0 {
			fill: #0066FF;
		}

		.st1 {
			fill: #6198FF;
		}

		.st2 {
			fill: #F5F8FA;
		}

		.st3 {
			fill: #CCD6DD;
		}

		.st4 {
			fill: #292F33;
		}

		.st5 {
			fill: #DD2E44;
		}

		.st6 {
			fill: #8899A6;
		}
	</style>
	<circle class="st0" cx="18" cy="18" r="18" />
	<circle class="st2" cx="18" cy="18" r="13" />
	<path class="st3" d="M18,8l1.5,6.3l5.5-3.4l-3.4,5.5L28,18l-6.3,1.5l3.4,5.5l-5.5-3.4L18,28l-1.5-6.3L11,25.1l3.4-5.5L8,18l6.3-1.5
logoBig	L10.9,11l5.5,3.4L18,8z" />
	<path class="st4" d="M17.3,20.7l8.8,5.4l-5.4-8.8L17.3,20.7z" />
	<path class="st5" d="M18.7,15.3L9.9,9.9l5.4,8.8L18.7,15.3z" />
	<circle class="st6" cx="18" cy="18" r="3.1" />
	<circle class="st2" cx="18" cy="18" r="1.6" />
	<g>
		<path class="st0" d="M47.7,8.4c0.3-0.7,0.8-1.2,1.5-1.5c0.6-0.4,1.4-0.5,2.2-0.5c0.7,0,1.4,0.1,2,0.4c0.6,0.3,1.1,0.7,1.4,1.2
		s0.6,1.1,0.7,1.8h-2.8c-0.1-0.3-0.3-0.5-0.5-0.7c-0.2-0.2-0.5-0.2-0.8-0.2c-0.4,0-0.8,0.2-1.1,0.5c-0.3,0.3-0.4,0.8-0.4,1.4
		c0,0.6,0.1,1,0.4,1.4c0.3,0.3,0.6,0.5,1.1,0.5c0.3,0,0.6-0.1,0.8-0.2c0.2-0.2,0.4-0.4,0.5-0.7h2.8c-0.1,0.7-0.4,1.3-0.7,1.8
		s-0.8,0.9-1.4,1.2c-0.6,0.3-1.2,0.4-2,0.4c-0.9,0-1.6-0.2-2.2-0.5c-0.6-0.4-1.1-0.9-1.5-1.5c-0.3-0.7-0.5-1.4-0.5-2.2
		C47.2,9.8,47.3,9.1,47.7,8.4z" />
		<path class="st0" d="M56.4,9.7c0.2-0.5,0.6-0.9,1-1.2S58.3,8,58.9,8c0.4,0,0.8,0.1,1.1,0.3c0.3,0.2,0.6,0.4,0.7,0.7V8.1h2.7v6.8
		h-2.7V14c-0.2,0.3-0.4,0.6-0.7,0.7c-0.3,0.2-0.7,0.3-1.1,0.3c-0.5,0-1-0.1-1.4-0.4s-0.8-0.7-1-1.2s-0.4-1.1-0.4-1.9
		S56.2,10.2,56.4,9.7z M60.5,10.7c-0.2-0.2-0.4-0.3-0.7-0.3c-0.3,0-0.5,0.1-0.7,0.3c-0.2,0.2-0.3,0.5-0.3,0.8c0,0.4,0.1,0.6,0.3,0.8
		c0.2,0.2,0.4,0.3,0.7,0.3c0.3,0,0.5-0.1,0.7-0.3c0.2-0.2,0.3-0.5,0.3-0.8C60.8,11.2,60.7,10.9,60.5,10.7z" />
		<path class="st0"
			d="M75.6,8.9c0.5,0.5,0.7,1.2,0.7,2.1v3.9h-2.7v-3.6c0-0.3-0.1-0.5-0.3-0.7c-0.2-0.2-0.4-0.2-0.7-0.2
		c-0.3,0-0.5,0.1-0.7,0.2c-0.2,0.2-0.3,0.4-0.3,0.7v3.6h-2.7v-3.6c0-0.3-0.1-0.5-0.3-0.7c-0.2-0.2-0.4-0.2-0.7-0.2
		c-0.3,0-0.5,0.1-0.7,0.2c-0.2,0.2-0.3,0.4-0.3,0.7v3.6h-2.7V8.1h2.7V9c0.2-0.3,0.5-0.5,0.8-0.7c0.3-0.2,0.7-0.3,1.2-0.3
		c0.5,0,0.9,0.1,1.3,0.3c0.4,0.2,0.7,0.5,0.9,0.9c0.2-0.4,0.6-0.6,0.9-0.9c0.4-0.2,0.8-0.3,1.3-0.3C74.5,8.1,75.2,8.3,75.6,8.9z" />
		<path class="st0" d="M80.9,8.3C81.2,8.1,81.6,8,82,8c0.5,0,1,0.1,1.4,0.4s0.8,0.7,1,1.2s0.4,1.1,0.4,1.9s-0.1,1.3-0.4,1.9
		s-0.6,0.9-1,1.2S82.6,15,82,15c-0.4,0-0.8-0.1-1.1-0.3s-0.6-0.4-0.7-0.7v4.2h-2.7v-10h2.7v0.9C80.3,8.7,80.6,8.5,80.9,8.3z
		 M81.9,10.7c-0.2-0.2-0.4-0.3-0.7-0.3c-0.3,0-0.5,0.1-0.7,0.3c-0.2,0.2-0.3,0.5-0.3,0.8c0,0.4,0.1,0.6,0.3,0.8
		c0.2,0.2,0.4,0.3,0.7,0.3c0.3,0,0.5-0.1,0.7-0.3c0.2-0.2,0.3-0.5,0.3-0.8C82.1,11.2,82,10.9,81.9,10.7z" />
		<path class="st0"
			d="M92.8,8.1v6.8h-2.7v-1c-0.2,0.3-0.5,0.6-0.8,0.8c-0.3,0.2-0.8,0.3-1.2,0.3c-0.8,0-1.4-0.3-1.8-0.8
		s-0.7-1.2-0.7-2.1V8.1h2.7v3.6c0,0.3,0.1,0.6,0.3,0.8s0.4,0.3,0.7,0.3c0.3,0,0.5-0.1,0.7-0.3s0.3-0.4,0.3-0.8V8.1H92.8z" />
		<path class="st0" d="M95.4,14.7c-0.5-0.2-0.9-0.5-1.2-0.9c-0.3-0.4-0.5-0.8-0.5-1.2h2.6c0,0.2,0.1,0.3,0.3,0.4s0.3,0.1,0.5,0.1
		c0.1,0,0.2,0,0.3-0.1c0.1-0.1,0.1-0.1,0.1-0.2c0-0.2-0.1-0.3-0.3-0.3c-0.2-0.1-0.5-0.1-0.9-0.2c-0.5-0.1-0.9-0.2-1.2-0.3
		c-0.3-0.1-0.6-0.3-0.8-0.6c-0.2-0.3-0.4-0.6-0.4-1.1c0-0.4,0.1-0.8,0.3-1.1c0.2-0.3,0.5-0.6,1-0.8c0.4-0.2,1-0.3,1.6-0.3
		c0.9,0,1.6,0.2,2.1,0.7c0.5,0.4,0.8,1,0.9,1.8h-2.4c0-0.2-0.1-0.3-0.3-0.4c-0.1-0.1-0.3-0.1-0.5-0.1c-0.1,0-0.2,0-0.3,0.1
		c-0.1,0.1-0.1,0.1-0.1,0.2c0,0.1,0.1,0.2,0.3,0.3c0.2,0.1,0.4,0.1,0.8,0.2c0.5,0.1,0.9,0.2,1.2,0.3s0.6,0.3,0.9,0.6
		s0.4,0.7,0.4,1.2c0,0.4-0.1,0.8-0.3,1.1c-0.2,0.3-0.6,0.6-1,0.8S97.6,15,97.1,15C96.4,15,95.8,14.9,95.4,14.7z" />
		<path class="st0" d="M51.7,29.3l-1.6-3h0v3h-2.7v-8.5h4c0.7,0,1.3,0.1,1.8,0.4c0.5,0.2,0.9,0.6,1.1,1s0.4,0.9,0.4,1.4
		c0,0.6-0.2,1.1-0.5,1.5c-0.3,0.4-0.8,0.8-1.4,0.9l1.8,3.3H51.7z M50.1,24.5h1.1c0.3,0,0.4-0.1,0.6-0.2s0.2-0.3,0.2-0.5
		c0-0.2-0.1-0.4-0.2-0.5c-0.1-0.1-0.3-0.2-0.6-0.2h-1.1V24.5z" />
		<path class="st0" d="M56.8,29c-0.5-0.3-1-0.7-1.3-1.2c-0.3-0.5-0.5-1.1-0.5-1.8s0.2-1.3,0.5-1.8c0.3-0.5,0.7-0.9,1.3-1.2
		c0.5-0.3,1.2-0.4,1.8-0.4c0.7,0,1.3,0.1,1.8,0.4c0.5,0.3,1,0.7,1.3,1.2c0.3,0.5,0.5,1.1,0.5,1.8s-0.2,1.3-0.5,1.8
		c-0.3,0.5-0.7,0.9-1.3,1.2c-0.5,0.3-1.2,0.4-1.8,0.4C58,29.4,57.4,29.2,56.8,29z M59.3,26.8c0.2-0.2,0.3-0.5,0.3-0.9
		s-0.1-0.7-0.3-0.9s-0.4-0.3-0.6-0.3S58.2,24.8,58,25s-0.3,0.5-0.3,0.9s0.1,0.7,0.2,0.9c0.2,0.2,0.4,0.3,0.6,0.3
		C58.9,27.1,59.1,27,59.3,26.8z" />
		<path class="st0" d="M70.2,22.5v6.8h-2.7v-1c-0.2,0.3-0.5,0.6-0.8,0.8c-0.3,0.2-0.8,0.3-1.2,0.3c-0.8,0-1.4-0.3-1.8-0.8
		C63.2,28,63,27.3,63,26.5v-3.9h2.7v3.6c0,0.3,0.1,0.6,0.3,0.8c0.2,0.2,0.4,0.3,0.7,0.3c0.3,0,0.5-0.1,0.7-0.3
		c0.2-0.2,0.3-0.4,0.3-0.8v-3.6H70.2z" />
		<path class="st0" d="M75.7,27v2.3h-1c-1.9,0-2.8-0.9-2.8-2.8v-1.8H71v-2.2h0.8v-1.6h2.7v1.6h1.1v2.2h-1.1v1.8c0,0.2,0,0.3,0.1,0.3
		S74.8,27,75,27H75.7z" />
		<path class="st0" d="M83.2,26.4h-4.3c0,0.6,0.3,0.9,0.7,0.9c0.3,0,0.5-0.1,0.6-0.4h2.8c-0.1,0.5-0.3,0.9-0.6,1.3
		c-0.3,0.4-0.7,0.7-1.2,0.9c-0.5,0.2-1,0.3-1.5,0.3c-0.7,0-1.3-0.1-1.8-0.4c-0.5-0.3-0.9-0.7-1.2-1.2c-0.3-0.5-0.4-1.1-0.4-1.8
		s0.1-1.3,0.4-1.8c0.3-0.5,0.7-0.9,1.2-1.2c0.5-0.3,1.1-0.4,1.8-0.4s1.3,0.1,1.8,0.4c0.5,0.3,0.9,0.7,1.2,1.2
		c0.3,0.5,0.4,1.1,0.4,1.8C83.2,26,83.2,26.2,83.2,26.4z M80.5,25.2c0-0.2-0.1-0.4-0.2-0.5c-0.1-0.1-0.3-0.2-0.5-0.2
		c-0.5,0-0.7,0.2-0.8,0.7H80.5z" />
	</g>
</svg>